<svg width="24" height="24" viewBox="0 0 24 24" fill="none" xmlns="http://www.w3.org/2000/svg">
<path d="M12 3.2002C12.4418 3.2002 12.7998 3.55817 12.7998 4V11.2002H20C20.4418 11.2002 20.7998 11.5582 20.7998 12C20.7998 12.4418 20.4418 12.7998 20 12.7998H12.7998V20C12.7998 20.4418 12.4418 20.7998 12 20.7998C11.5582 20.7998 11.2002 20.4418 11.2002 20V12.7998H4C3.55817 12.7998 3.2002 12.4418 3.2002 12C3.2002 11.5582 3.55817 11.2002 4 11.2002H11.2002V4C11.2002 3.55817 11.5582 3.2002 12 3.2002Z" fill="white"/>
</svg>
