<svg width="587" height="251" viewBox="0 0 587 251" fill="none" xmlns="http://www.w3.org/2000/svg">
<path d="M323.504 117.555C319.861 117.555 316.394 117.116 313.102 116.237C309.845 115.323 306.885 113.987 304.223 112.229C301.596 110.472 299.425 108.31 297.709 105.743C296.028 103.142 294.924 100.119 294.399 96.6737H303.067C303.768 99.7321 305.099 102.298 307.06 104.372C309.021 106.411 311.456 107.958 314.363 109.013C317.27 110.032 320.422 110.542 323.819 110.542C327.286 110.542 330.456 109.979 333.328 108.854C336.2 107.73 338.494 106.13 340.21 104.056C341.927 101.982 342.785 99.486 342.785 96.5682C342.785 93.4395 341.786 90.8733 339.79 88.8695C337.794 86.8658 334.624 85.2663 330.281 84.0711L314.31 79.7999C310.878 78.8859 307.831 77.6555 305.169 76.1087C302.542 74.562 300.476 72.5055 298.97 69.9393C297.464 67.373 296.711 64.174 296.711 60.3423C296.711 56.159 297.866 52.4854 300.178 49.3216C302.489 46.1578 305.624 43.697 309.582 41.9393C313.575 40.1816 318.075 39.3028 323.084 39.3028C328.968 39.3028 333.889 40.3398 337.846 42.4139C341.839 44.4879 344.851 47.1948 346.882 50.5344C348.949 53.874 349.982 57.407 349.982 61.1332H341.471C341.121 57.4421 340.035 54.5243 338.214 52.38C336.428 50.2356 334.186 48.6888 331.489 47.7397C328.793 46.7905 325.903 46.3159 322.821 46.3159C317.147 46.3159 312.822 47.6342 309.845 50.2707C306.867 52.9073 305.379 56.0711 305.379 59.7622C305.379 63.137 306.43 65.7735 308.531 67.6718C310.668 69.535 313.715 70.9939 317.672 72.0485L333.538 76.2669C337.916 77.3567 341.384 78.9035 343.94 80.9072C346.532 82.8758 348.388 85.1608 349.509 87.7622C350.63 90.3284 351.19 93.088 351.19 96.0409C351.19 100.154 350.052 103.845 347.776 107.114C345.499 110.348 342.294 112.897 338.161 114.76C334.029 116.623 329.143 117.555 323.504 117.555Z" fill="#111111"/>
<path d="M360.338 116.5V61.9769H368.324V116.5H360.338ZM359.97 49.3743V40.3047H368.586V49.3743H359.97Z" fill="#111111"/>
<path d="M379.832 116.5V61.9769H387.712V69.9393C389.148 67.5136 391.144 65.4044 393.701 63.6116C396.293 61.8187 399.69 60.9223 403.893 60.9223C405.924 60.9223 407.973 61.2563 410.04 61.9242C412.106 62.5921 413.998 63.594 415.714 64.9298C417.43 66.2657 418.743 67.9179 419.654 69.8865C421.335 67.1445 423.612 64.965 426.484 63.3479C429.356 61.7309 432.613 60.9223 436.255 60.9223C438.147 60.9223 440.108 61.2036 442.139 61.766C444.206 62.3285 446.132 63.3304 447.918 64.7717C449.705 66.1778 451.141 68.1991 452.226 70.8357C453.347 73.4371 453.907 76.7942 453.907 80.9072V116.5H445.712V81.6455C445.712 78.0246 445.151 75.2475 444.031 73.314C442.91 71.3454 441.456 69.9744 439.67 69.201C437.884 68.4276 435.975 68.041 433.944 68.041C432.122 68.041 430.196 68.3925 428.165 69.0956C426.168 69.7635 424.452 70.9411 423.016 72.6285C421.615 74.3159 420.915 76.6536 420.915 79.6417V116.5H412.719V78.3762C412.719 76.0912 412.106 74.1929 410.88 72.6812C409.69 71.1345 408.201 69.9744 406.415 69.201C404.629 68.4276 402.842 68.041 401.056 68.041C399.095 68.041 397.098 68.4276 395.067 69.201C393.071 69.9744 391.39 71.2224 390.024 72.9449C388.693 74.6674 388.027 76.8997 388.027 79.6417V116.5H379.832Z" fill="#111111"/>
<path d="M463.516 133.48V61.9769H471.659L471.816 71.943C472.342 70.8533 473.077 69.6756 474.023 68.4101C475.004 67.1445 476.229 65.9493 477.701 64.8244C479.172 63.6643 480.905 62.7327 482.902 62.0297C484.933 61.2914 487.262 60.9223 489.889 60.9223C494.302 60.9223 498.19 61.9066 501.552 63.8752C504.914 65.8438 507.523 68.8671 509.38 72.9449C511.271 77.0227 512.217 82.1903 512.217 88.4477C512.217 94.5645 511.324 99.8024 509.537 104.161C507.786 108.485 505.212 111.807 501.815 114.128C498.417 116.413 494.267 117.555 489.364 117.555C486.737 117.555 484.443 117.186 482.481 116.448C480.52 115.709 478.839 114.743 477.438 113.547C476.037 112.352 474.881 111.122 473.97 109.856C473.06 108.556 472.324 107.325 471.764 106.165V133.48H463.516ZM487.998 110.964C492.796 110.964 496.684 109.153 499.661 105.532C502.673 101.912 504.179 96.3221 504.179 88.7641C504.179 82.2958 502.813 77.1458 500.081 73.314C497.384 69.4471 493.356 67.5136 487.998 67.5136C482.674 67.5136 478.611 69.4647 475.809 73.3667C473.042 77.2688 471.659 82.4013 471.659 88.7641C471.659 92.9122 472.272 96.6737 473.498 100.048C474.758 103.388 476.597 106.042 479.014 108.011C481.431 109.979 484.425 110.964 487.998 110.964Z" fill="#111111"/>
<path d="M532.209 117.08C529.617 117.08 527.481 116.711 525.8 115.973C524.154 115.2 522.858 114.145 521.912 112.809C521.001 111.473 520.371 109.944 520.021 108.222C519.671 106.499 519.495 104.689 519.495 102.79V38.1427H527.586V102.105C527.586 105.093 528.146 107.29 529.267 108.696C530.388 110.067 531.859 110.805 533.68 110.911L536.727 110.964V116.342C535.957 116.588 535.169 116.764 534.363 116.869C533.558 117.01 532.84 117.08 532.209 117.08Z" fill="#111111"/>
<path d="M564.305 117.555C559.331 117.555 554.936 116.465 551.118 114.286C547.335 112.071 544.376 108.89 542.239 104.741C540.103 100.593 539.035 95.6015 539.035 89.766C539.035 83.9656 539.998 78.9035 541.924 74.5796C543.851 70.2205 546.652 66.8633 550.33 64.508C554.007 62.1176 558.438 60.9223 563.622 60.9223C568.63 60.9223 572.868 62.0121 576.335 64.1916C579.803 66.336 582.447 69.4119 584.268 73.4195C586.09 77.427 587 82.2079 587 87.7622V91.137H547.44C547.405 94.793 547.983 98.115 549.174 101.103C550.4 104.091 552.256 106.482 554.743 108.274C557.23 110.067 560.364 110.964 564.147 110.964C567.859 110.964 571.047 110.102 573.708 108.38C576.37 106.622 578.034 104.144 578.699 100.945H586.58C585.914 104.601 584.461 107.659 582.219 110.12C579.978 112.581 577.281 114.444 574.129 115.709C571.012 116.94 567.737 117.555 564.305 117.555ZM547.493 85.2839H579.015C579.015 81.9091 578.454 78.8683 577.333 76.1615C576.213 73.4546 574.497 71.3103 572.185 69.7283C569.908 68.1464 567.019 67.3555 563.517 67.3555C559.839 67.3555 556.809 68.2519 554.428 70.0447C552.046 71.8024 550.277 74.0522 549.122 76.7942C548.001 79.5362 547.458 82.3661 547.493 85.2839Z" fill="#111111"/>
<path d="M298.549 211.604V135.355H323.609C329.003 135.355 333.801 136.269 338.004 138.097C342.242 139.89 345.552 142.562 347.933 146.112C350.35 149.628 351.558 153.987 351.558 159.19C351.558 164.287 350.42 168.628 348.143 172.214C345.867 175.765 342.715 178.471 338.687 180.335C334.694 182.198 330.053 183.129 324.765 183.129H307.06V211.604H298.549ZM307.008 175.905H324.607C330.176 175.905 334.694 174.376 338.161 171.318C341.664 168.259 343.415 164.058 343.415 158.715C343.415 153.301 341.629 149.241 338.056 146.534C334.484 143.827 329.808 142.474 324.029 142.474H307.008V175.905Z" fill="#111111"/>
<path d="M370.789 212.658C367.251 212.658 364.134 212.043 361.437 210.813C358.776 209.547 356.692 207.754 355.186 205.434C353.715 203.114 352.979 200.319 352.979 197.05C352.979 191.004 355.046 186.522 359.178 183.604C363.311 180.686 369.983 179.104 379.195 178.858L389.649 178.542V174.007C389.649 170.456 388.581 167.626 386.445 165.517C384.308 163.373 380.998 162.318 376.515 162.353C373.153 162.353 370.228 163.144 367.742 164.726C365.29 166.273 363.731 168.769 363.066 172.214H355.606C355.816 168.804 356.762 165.904 358.443 163.513C360.159 161.088 362.576 159.242 365.693 157.977C368.81 156.676 372.54 156.026 376.883 156.026C381.401 156.026 385.184 156.694 388.231 158.029C391.313 159.33 393.642 161.299 395.218 163.935C396.794 166.537 397.582 169.771 397.582 173.638V211.604H390.542L389.964 201.11C387.793 205.434 385.026 208.44 381.664 210.127C378.336 211.815 374.712 212.658 370.789 212.658ZM373.1 206.489C375.027 206.489 376.971 206.137 378.932 205.434C380.893 204.731 382.679 203.765 384.291 202.534C385.902 201.304 387.198 199.933 388.178 198.421C389.159 196.91 389.649 195.363 389.649 193.781V184.078L380.928 184.237C376.34 184.307 372.575 184.764 369.633 185.608C366.691 186.451 364.52 187.752 363.119 189.51C361.718 191.232 361.017 193.5 361.017 196.312C361.017 199.511 362.138 202.007 364.379 203.8C366.621 205.593 369.528 206.489 373.1 206.489Z" fill="#111111"/>
<path d="M419.942 212.184C417.35 212.184 415.214 211.815 413.533 211.076C411.887 210.303 410.591 209.248 409.645 207.913C408.734 206.577 408.104 205.048 407.754 203.325C407.403 201.603 407.228 199.792 407.228 197.894V133.246H415.319V197.208C415.319 200.196 415.879 202.394 417 203.8C418.121 205.171 419.592 205.909 421.413 206.014L424.46 206.067V211.446C423.69 211.692 422.902 211.867 422.096 211.973C421.29 212.114 420.572 212.184 419.942 212.184Z" fill="#111111"/>
<path d="M452.037 212.658C447.064 212.658 442.669 211.569 438.851 209.389C435.068 207.174 432.109 203.993 429.972 199.845C427.836 195.697 426.768 190.705 426.768 184.869C426.768 179.069 427.731 174.007 429.657 169.683C431.583 165.324 434.385 161.967 438.063 159.611C441.74 157.221 446.171 156.026 451.354 156.026C456.363 156.026 460.601 157.116 464.068 159.295C467.536 161.439 470.18 164.515 472.001 168.523C473.822 172.53 474.733 177.311 474.733 182.866V186.24H435.173C435.138 189.896 435.716 193.218 436.907 196.206C438.133 199.195 439.989 201.585 442.476 203.378C444.963 205.171 448.097 206.067 451.88 206.067C455.592 206.067 458.78 205.206 461.441 203.483C464.103 201.726 465.767 199.247 466.432 196.048H474.313C473.647 199.704 472.194 202.763 469.952 205.223C467.711 207.684 465.014 209.547 461.862 210.813C458.745 212.043 455.47 212.658 452.037 212.658ZM435.226 180.387H466.748C466.748 177.013 466.187 173.972 465.066 171.265C463.946 168.558 462.229 166.414 459.918 164.832C457.641 163.25 454.752 162.459 451.249 162.459C447.572 162.459 444.542 163.355 442.161 165.148C439.779 166.906 438.01 169.156 436.855 171.898C435.734 174.64 435.191 177.47 435.226 180.387Z" fill="#111111"/>
<path d="M498.854 211.815C495.386 211.815 492.689 211.323 490.763 210.338C488.872 209.354 487.541 207.895 486.77 205.962C486 204.028 485.615 201.603 485.615 198.685V163.25H476.789V157.08H485.825L487.769 141.367H493.863V157.028H506.156V163.25H493.863V198.421C493.863 200.53 494.055 202.077 494.441 203.061C494.861 204.011 495.579 204.626 496.595 204.907C497.645 205.153 499.099 205.276 500.955 205.276H506.524V210.971C505.858 211.217 504.86 211.428 503.529 211.604C502.233 211.744 500.675 211.815 498.854 211.815Z" fill="#111111"/>
<path d="M527.026 211.815C523.559 211.815 520.862 211.323 518.936 210.338C517.044 209.354 515.713 207.895 514.943 205.962C514.172 204.028 513.787 201.603 513.787 198.685V163.25H504.961V157.08H513.997L515.941 141.367H522.035V157.028H534.329V163.25H522.035V198.421C522.035 200.53 522.228 202.077 522.613 203.061C523.033 204.011 523.751 204.626 524.767 204.907C525.818 205.153 527.271 205.276 529.128 205.276H534.696V210.971C534.031 211.217 533.033 211.428 531.702 211.604C530.406 211.744 528.847 211.815 527.026 211.815Z" fill="#111111"/>
<path d="M563.028 212.658C558.055 212.658 553.659 211.569 549.842 209.389C546.059 207.174 543.099 203.993 540.963 199.845C538.826 195.697 537.758 190.705 537.758 184.869C537.758 179.069 538.721 174.007 540.648 169.683C542.574 165.324 545.376 161.967 549.054 159.611C552.731 157.221 557.162 156.026 562.345 156.026C567.354 156.026 571.591 157.116 575.059 159.295C578.526 161.439 581.171 164.515 582.992 168.523C584.813 172.53 585.724 177.311 585.724 182.866V186.24H546.164C546.129 189.896 546.707 193.218 547.898 196.206C549.124 199.195 550.98 201.585 553.467 203.378C555.953 205.171 559.088 206.067 562.87 206.067C566.583 206.067 569.77 205.206 572.432 203.483C575.094 201.726 576.758 199.247 577.423 196.048H585.303C584.638 199.704 583.184 202.763 580.943 205.223C578.701 207.684 576.004 209.547 572.852 210.813C569.735 212.043 566.46 212.658 563.028 212.658ZM546.217 180.387H577.738C577.738 177.013 577.178 173.972 576.057 171.265C574.936 168.558 573.22 166.414 570.908 164.832C568.632 163.25 565.742 162.459 562.24 162.459C558.563 162.459 555.533 163.355 553.151 165.148C550.77 166.906 549.001 169.156 547.845 171.898C546.724 174.64 546.182 177.47 546.217 180.387Z" fill="#111111"/>
<g clip-path="url(#iconClip)">
  <path d="M125.40,125.40 L125.40,-54.60 A180,180 0 0,1 186.96,-43.75 Z" fill="#ff0909"/>
  <path d="M125.40,125.40 L186.96,-43.75 A180,180 0 0,1 241.10,-12.48 Z" fill="#ff4309"/>
  <path d="M125.40,125.40 L241.10,-12.48 A180,180 0 0,1 281.28,35.40 Z" fill="#ff7b09"/>
  <path d="M125.40,125.40 L281.28,35.40 A180,180 0 0,1 302.66,94.15 Z" fill="#ffb409"/>
  <path d="M125.40,125.40 L302.66,94.15 A180,180 0 0,1 302.66,156.65 Z" fill="#f1df09"/>
  <path d="M125.40,125.40 L302.66,156.65 A180,180 0 0,1 281.28,215.40 Z" fill="#cff609"/>
  <path d="M125.40,125.40 L281.28,215.40 A180,180 0 0,1 241.10,263.28 Z" fill="#92ff09"/>
  <path d="M125.40,125.40 L241.10,263.28 A180,180 0 0,1 186.96,294.55 Z" fill="#42ff09"/>
  <path d="M125.40,125.40 L186.96,294.55 A180,180 0 0,1 125.40,305.40 Z" fill="#20ff3f"/>
  <path d="M125.40,125.40 L125.40,305.40 A180,180 0 0,1 63.84,294.55 Z" fill="#09ff84"/>
  <path d="M125.40,125.40 L63.84,294.55 A180,180 0 0,1 9.70,263.28 Z" fill="#09e8c9"/>
  <path d="M125.40,125.40 L9.70,263.28 A180,180 0 0,1 -30.48,215.40 Z" fill="#09c6ff"/>
  <path d="M125.40,125.40 L-30.48,215.40 A180,180 0 0,1 -51.86,156.65 Z" fill="#0976ff"/>
  <path d="M125.40,125.40 L-51.86,156.65 A180,180 0 0,1 -51.86,94.15 Z" fill="#2039ff"/>
  <path d="M125.40,125.40 L-51.86,94.15 A180,180 0 0,1 -30.48,35.40 Z" fill="#5917ff"/>
  <path d="M125.40,125.40 L-30.48,35.40 A180,180 0 0,1 9.70,-12.48 Z" fill="#9f09ff"/>
  <path d="M125.40,125.40 L9.70,-12.48 A180,180 0 0,1 63.84,-43.75 Z" fill="#ef09ff"/>
  <path d="M125.40,125.40 L63.84,-43.75 A180,180 0 0,1 125.40,-54.60 Z" fill="#ff0993"/>
</g>
<defs>
  <clipPath id="iconClip">
    <path d="M4.32341 60.201C8.51044 30.6615 30.6615 8.51044 60.2009 4.32341C77.3014 1.89953 99.0944 0 125.401 0C151.707 0 173.5 1.89953 190.6 4.32341C220.139 8.51044 242.291 30.6615 246.478 60.2009C248.901 77.3014 250.801 99.0944 250.801 125.401C250.801 151.707 248.901 173.5 246.478 190.6C242.291 220.139 220.139 242.291 190.6 246.478C173.5 248.901 151.707 250.801 125.401 250.801C99.0944 250.801 77.3014 248.901 60.201 246.478C30.6615 242.291 8.51044 220.139 4.32341 190.6C1.89953 173.5 0 151.707 0 125.401C0 99.0944 1.89953 77.3014 4.32341 60.201Z"/>
  </clipPath>
</defs>
</svg>
