<svg width="24" height="24" viewBox="0 0 24 24" fill="none" xmlns="http://www.w3.org/2000/svg">
<path d="M8.59473 3.27134C8.89807 3.13416 9.25483 3.19901 9.49023 3.43442C9.72552 3.66983 9.79047 4.02666 9.65332 4.32993C9.22421 5.27898 8.98535 6.33314 8.98535 7.44516C8.98546 11.6257 12.3741 15.0144 16.5547 15.0145C17.6667 15.0145 18.7209 14.7756 19.6699 14.3465C19.9732 14.2094 20.33 14.2743 20.5654 14.5096C20.8008 14.745 20.8657 15.1018 20.7285 15.4051C19.2904 18.5846 16.0899 20.7996 12.3701 20.7997C7.3058 20.7997 3.20027 16.694 3.2002 11.6297C3.2003 7.90995 5.4152 4.70943 8.59473 3.27134ZM7.5332 5.80649C5.8627 7.19551 4.79989 9.28903 4.7998 11.6297C4.79988 15.8104 8.18945 19.2 12.3701 19.2C14.7109 19.2 16.8034 18.1362 18.1924 16.4657C17.6606 16.5616 17.1135 16.6151 16.5547 16.6151C11.4904 16.615 7.38487 12.5094 7.38477 7.44516C7.38477 6.88609 7.43715 6.33853 7.5332 5.80649Z" fill="#121212"/>
</svg>
