<svg width="24" height="24" viewBox="0 0 24 24" fill="none" xmlns="http://www.w3.org/2000/svg">
<path d="M12 17.2002C12.4418 17.2002 12.7998 17.5582 12.7998 18V20C12.7998 20.4418 12.4418 20.7998 12 20.7998C11.5582 20.7998 11.2002 20.4418 11.2002 20V18C11.2002 17.5582 11.5582 17.2002 12 17.2002ZM7.19141 15.6768C7.50383 15.3643 8.01082 15.3643 8.32324 15.6768C8.63566 15.9892 8.63566 16.4962 8.32324 16.8086L6.9082 18.2227C6.59576 18.5347 6.08964 18.535 5.77734 18.2227C5.46504 17.9104 5.46529 17.4042 5.77734 17.0918L7.19141 15.6768ZM15.6768 15.6768C15.9892 15.3643 16.4962 15.3643 16.8086 15.6768L18.2227 17.0918C18.5347 17.4042 18.5349 17.9104 18.2227 18.2227C17.9102 18.5351 17.4032 18.5351 17.0908 18.2227L15.6768 16.8086C15.3643 16.4962 15.3643 15.9892 15.6768 15.6768ZM12 8.2002C14.0987 8.2002 15.7998 9.90133 15.7998 12C15.7998 14.0987 14.0987 15.7998 12 15.7998C9.90132 15.7998 8.2002 14.0987 8.2002 12C8.2002 9.90132 9.90132 8.2002 12 8.2002ZM12 9.7998C10.785 9.7998 9.79981 10.785 9.7998 12C9.7998 13.215 10.785 14.2002 12 14.2002C13.215 14.2002 14.2002 13.215 14.2002 12C14.2002 10.785 13.215 9.79981 12 9.7998ZM6 11.2002C6.44182 11.2002 6.7998 11.5582 6.7998 12C6.7998 12.4418 6.44182 12.7998 6 12.7998H4C3.55817 12.7998 3.2002 12.4418 3.2002 12C3.2002 11.5582 3.55817 11.2002 4 11.2002H6ZM20 11.2002C20.4418 11.2002 20.7998 11.5582 20.7998 12C20.7998 12.4418 20.4418 12.7998 20 12.7998H18C17.5582 12.7998 17.2002 12.4418 17.2002 12C17.2002 11.5582 17.5582 11.2002 18 11.2002H20ZM5.77734 5.77734C6.08964 5.46506 6.59576 5.4653 6.9082 5.77734L8.32324 7.19141C8.63566 7.50382 8.63565 8.01082 8.32324 8.32324C8.01082 8.63566 7.50383 8.63566 7.19141 8.32324L5.77734 6.90918C5.46492 6.59676 5.46492 6.08976 5.77734 5.77734ZM17.0908 5.77734C17.4032 5.46492 17.9102 5.46492 18.2227 5.77734C18.5351 6.08976 18.5351 6.59676 18.2227 6.90918L16.8086 8.32324C16.4962 8.63566 15.9892 8.63566 15.6768 8.32324C15.3643 8.01082 15.3643 7.50383 15.6768 7.19141L17.0908 5.77734ZM12 3.2002C12.4418 3.2002 12.7998 3.55818 12.7998 4V6C12.7998 6.44182 12.4418 6.7998 12 6.7998C11.5582 6.7998 11.2002 6.44183 11.2002 6V4C11.2002 3.55818 11.5582 3.2002 12 3.2002Z" fill="white"/>
</svg>
