<svg width="24" height="24" viewBox="0 0 24 24" fill="none" xmlns="http://www.w3.org/2000/svg">
<path d="M12 3.2002C14.3784 3.2002 16.3516 4.93005 16.7324 7.2002H20C20.4418 7.2002 20.7998 7.55817 20.7998 8C20.7998 8.44183 20.4418 8.7998 20 8.7998H18.7012C18.7138 8.91374 18.7169 9.03055 18.707 9.14941L17.874 19.1494C17.7963 20.0823 17.0161 20.7997 16.0801 20.7998H7.91992C6.98386 20.7997 6.20371 20.0823 6.12598 19.1494L5.29297 9.14941C5.28307 9.03055 5.28624 8.91374 5.29883 8.7998H4C3.55817 8.7998 3.2002 8.44183 3.2002 8C3.2002 7.55817 3.55817 7.2002 4 7.2002H7.26758C7.6484 4.93005 9.6216 3.2002 12 3.2002ZM7.08691 8.7998C6.96991 8.7998 6.87798 8.9 6.8877 9.0166L7.7207 19.0166C7.72934 19.1202 7.816 19.2001 7.91992 19.2002H16.0801C16.184 19.2001 16.2707 19.1202 16.2793 19.0166L17.1123 9.0166C17.122 8.9 17.0301 8.7998 16.9131 8.7998H7.08691ZM12 4.7998C10.5088 4.7998 9.25558 5.81984 8.90039 7.2002H15.0996C14.7444 5.81984 13.4912 4.7998 12 4.7998Z" fill="#121212"/>
</svg>
