<svg width="24" height="24" viewBox="0 0 24 24" fill="none" xmlns="http://www.w3.org/2000/svg">
<path d="M17 13.2002C19.0987 13.2002 20.7998 14.9013 20.7998 17C20.7998 19.0987 19.0987 20.7998 17 20.7998C14.9013 20.7998 13.2002 19.0987 13.2002 17C13.2002 14.9013 14.9013 13.2002 17 13.2002ZM17 14.7998C15.785 14.7998 14.7998 15.785 14.7998 17C14.7998 18.215 15.785 19.2002 17 19.2002C18.215 19.2002 19.2002 18.215 19.2002 17C19.2002 15.785 18.215 14.7998 17 14.7998ZM11.2002 16.4004C11.6419 16.4005 12 16.7584 12 17.2002C11.9999 17.6419 11.6419 17.9999 11.2002 18H3.7998C3.35813 17.9999 3.00011 17.6419 3 17.2002C3 16.7584 3.35807 16.4005 3.7998 16.4004H11.2002ZM7 3.2002C9.09868 3.2002 10.7998 4.90132 10.7998 7C10.7998 9.09868 9.09868 10.7998 7 10.7998C4.90132 10.7998 3.2002 9.09868 3.2002 7C3.2002 4.90132 4.90132 3.2002 7 3.2002ZM7 4.7998C5.78497 4.7998 4.7998 5.78497 4.7998 7C4.7998 8.21503 5.78497 9.2002 7 9.2002C8.21503 9.2002 9.2002 8.21503 9.2002 7C9.2002 5.78497 8.21503 4.7998 7 4.7998ZM20.2002 6.40039C20.6419 6.4005 21 6.75843 21 7.2002C20.9999 7.64187 20.6419 7.99989 20.2002 8H12.7998C12.3581 7.99989 12.0001 7.64187 12 7.2002C12 6.75843 12.3581 6.4005 12.7998 6.40039H20.2002Z" fill="#121212"/>
</svg>
